<svg width="127" height="125" viewBox="0 0 127 125" fill="none" xmlns="http://www.w3.org/2000/svg">
<g filter="url(#filter0_d_121_415)">
<rect x="40" y="36" width="47" height="45" rx="5" fill="#EEEEEE"/>
</g>
<path d="M71.1373 48.7581C71.3322 48.9532 71.3324 49.2692 71.1377 49.4645L62.4825 58.1467C62.288 58.3419 62.288 58.6576 62.4825 58.8527L71.1377 67.535C71.3324 67.7303 71.3322 68.0463 71.1373 68.2414L68.9623 70.4184C68.767 70.6139 68.4502 70.6139 68.2549 70.4184L56.7005 58.8531C56.5055 58.6579 56.5055 58.3416 56.7005 58.1463L68.2549 46.5811C68.4502 46.3856 68.767 46.3856 68.9623 46.5811L71.1373 48.7581Z" fill="#FF5C00"/>
<defs>
<filter id="filter0_d_121_415" x="0" y="0" width="127" height="125" filterUnits="userSpaceOnUse" color-interpolation-filters="sRGB">
<feFlood flood-opacity="0" result="BackgroundImageFix"/>
<feColorMatrix in="SourceAlpha" type="matrix" values="0 0 0 0 0 0 0 0 0 0 0 0 0 0 0 0 0 0 127 0" result="hardAlpha"/>
<feOffset dy="4"/>
<feGaussianBlur stdDeviation="20"/>
<feColorMatrix type="matrix" values="0 0 0 0 0 0 0 0 0 0 0 0 0 0 0 0 0 0 0.07 0"/>
<feBlend mode="normal" in2="BackgroundImageFix" result="effect1_dropShadow_121_415"/>
<feBlend mode="normal" in="SourceGraphic" in2="effect1_dropShadow_121_415" result="shape"/>
</filter>
</defs>
</svg>
