<svg width="91" height="91" viewBox="0 0 91 91" fill="none" xmlns="http://www.w3.org/2000/svg">
<g filter="url(#filter0_d_122_1113)">
<rect x="22" y="18" width="47" height="47" rx="5" fill="#FF5C00"/>
</g>
<path d="M52.3822 38.5207C52.3822 34.7185 49.2954 31.6246 45.5009 31.6246C41.7064 31.6248 38.6197 34.7186 38.6197 38.5207C38.6197 42.323 41.7065 45.4169 45.5009 45.4169C49.2954 45.4169 52.3822 42.3234 52.3822 38.5207ZM39.8152 38.5207C39.8152 35.3787 42.366 32.8224 45.5012 32.8224C48.6365 32.8224 51.1873 35.3787 51.1873 38.5207C51.1873 41.6628 48.6365 44.2191 45.5012 44.2191C42.366 44.2191 39.8152 41.6628 39.8152 38.5207ZM45.0041 55.7351C45.1151 55.9003 45.3009 55.9995 45.4998 55.9995C45.699 55.9995 45.8845 55.9003 45.9956 55.7351C46.6702 54.7312 47.6487 53.5072 48.6848 52.2116C51.9439 48.1353 56 43.0619 56 38.5216C56 32.7197 51.29 27.9995 45.5006 27.9995C39.7105 27.9995 35 32.7197 35 38.5216C35 43.0624 39.0559 48.1353 42.3152 52.2116C43.351 53.5071 44.3295 54.7312 45.0041 55.7351ZM45.5005 29.1969C50.6307 29.1969 54.8044 33.3796 54.8044 38.5208C54.8044 42.6408 50.8939 47.5319 47.7516 51.4618C46.9279 52.4917 46.1398 53.4773 45.4995 54.3585C44.8593 53.4777 44.0711 52.4922 43.2472 51.4618C40.1052 47.5318 36.195 42.6406 36.195 38.5203C36.195 33.3792 40.3693 29.1969 45.5005 29.1969Z" fill="white"/>
<defs>
<filter id="filter0_d_122_1113" x="0" y="0" width="91" height="91" filterUnits="userSpaceOnUse" color-interpolation-filters="sRGB">
<feFlood flood-opacity="0" result="BackgroundImageFix"/>
<feColorMatrix in="SourceAlpha" type="matrix" values="0 0 0 0 0 0 0 0 0 0 0 0 0 0 0 0 0 0 127 0" result="hardAlpha"/>
<feOffset dy="4"/>
<feGaussianBlur stdDeviation="11"/>
<feColorMatrix type="matrix" values="0 0 0 0 0 0 0 0 0 0 0 0 0 0 0 0 0 0 0.05 0"/>
<feBlend mode="normal" in2="BackgroundImageFix" result="effect1_dropShadow_122_1113"/>
<feBlend mode="normal" in="SourceGraphic" in2="effect1_dropShadow_122_1113" result="shape"/>
</filter>
</defs>
</svg>
