<svg width="91" height="91" viewBox="0 0 91 91" fill="none" xmlns="http://www.w3.org/2000/svg">
<g filter="url(#filter0_d_122_1115)">
<rect x="22" y="18" width="47" height="47" rx="5" fill="#FF5C00"/>
</g>
<path d="M45.4999 30C39.1533 30 34 35.1532 34 41.5C34 47.8468 39.1532 53 45.4999 53C47.3441 53 49.0802 52.566 50.7076 51.7525C51.0875 51.5356 51.2502 51.0472 51.0875 50.6676C50.8707 50.2877 50.3822 50.125 50.0027 50.2877C48.5924 50.993 47.0737 51.3726 45.5004 51.3726C40.0218 51.3726 35.6278 46.9242 35.6278 41.4999C35.6274 36.0758 40.0216 31.6273 45.5004 31.6273C50.9792 31.6273 55.3729 36.0214 55.3729 41.4999V44.429C55.3729 45.4052 54.5594 46.2191 53.5829 46.2191C52.6067 46.2191 51.7928 45.4055 51.7928 44.429V41.4999C51.7928 38.0282 48.972 35.1532 45.4461 35.1532C41.92 35.1532 39.1536 38.0282 39.1536 41.4999C39.1536 44.9716 41.9745 47.8466 45.5003 47.8466C47.4531 47.8466 49.2433 46.9245 50.3821 45.5143C50.8161 46.8704 52.1182 47.8466 53.5825 47.8466C55.4812 47.8466 57 46.3277 57 44.4291V41.5C57 35.1533 51.8468 30 45.5001 30L45.4999 30ZM45.4999 46.2193C42.8963 46.2193 40.7807 44.1038 40.7807 41.5001C40.7807 38.8964 42.8963 36.7809 45.4999 36.7809C48.1036 36.7809 50.2191 38.8964 50.2191 41.5001C50.2191 44.1038 48.1036 46.2193 45.4999 46.2193Z" fill="white"/>
<defs>
<filter id="filter0_d_122_1115" x="0" y="0" width="91" height="91" filterUnits="userSpaceOnUse" color-interpolation-filters="sRGB">
<feFlood flood-opacity="0" result="BackgroundImageFix"/>
<feColorMatrix in="SourceAlpha" type="matrix" values="0 0 0 0 0 0 0 0 0 0 0 0 0 0 0 0 0 0 127 0" result="hardAlpha"/>
<feOffset dy="4"/>
<feGaussianBlur stdDeviation="11"/>
<feColorMatrix type="matrix" values="0 0 0 0 0 0 0 0 0 0 0 0 0 0 0 0 0 0 0.05 0"/>
<feBlend mode="normal" in2="BackgroundImageFix" result="effect1_dropShadow_122_1115"/>
<feBlend mode="normal" in="SourceGraphic" in2="effect1_dropShadow_122_1115" result="shape"/>
</filter>
</defs>
</svg>
