<svg width="92" height="92" viewBox="0 0 92 92" fill="none" xmlns="http://www.w3.org/2000/svg">
<g filter="url(#filter0_d_122_1116)">
<rect x="22.9277" y="18.918" width="47.0147" height="46.9831" rx="5" fill="#FF5C00"/>
</g>
<path d="M56.8791 32.2959C57.1756 32.3032 57.4498 32.4547 57.6134 32.702C57.765 32.9433 57.7876 33.2441 57.6739 33.5053L48.4918 55.1027C48.3802 55.4406 48.073 55.6754 47.7179 55.6945C47.3627 55.7136 47.0322 55.5129 46.8853 55.1892L42.9379 48.2782V48.2779C42.6458 47.7483 42.2198 47.3043 41.7026 46.9908L34.7926 43.0515H34.7923C34.5069 42.8915 34.3362 42.5838 34.3518 42.2567C34.3704 41.9238 34.5789 41.6313 34.8875 41.5052L56.5249 32.3737C56.6359 32.3231 56.7568 32.2965 56.8788 32.2959L56.8791 32.2959ZM56.8788 31.0001C56.5813 30.9975 56.2865 31.0594 56.0153 31.1814L34.326 40.313C33.8269 40.5218 33.4243 40.9106 33.1982 41.402C32.9717 41.8934 32.9382 42.4517 33.1036 42.9668C33.2693 43.482 33.6224 43.9161 34.0927 44.1834L41.0027 48.114C41.3399 48.3087 41.6202 48.5887 41.8148 48.9259L45.7622 55.8369V55.8372C46.0329 56.3064 46.469 56.6578 46.9853 56.8227C47.5012 56.9876 48.0603 56.954 48.5528 56.7284C49.0456 56.5031 49.4364 56.1022 49.6492 55.6038L58.8313 34.0064V34.0067C59.1087 33.3449 59.041 32.5888 58.6503 31.9872C58.2596 31.3853 57.5964 31.0159 56.8792 31.0003L56.8788 31.0001Z" fill="white"/>
<path d="M44.6222 45.9976C44.4499 45.9994 44.2845 45.9305 44.1644 45.8073C43.9117 45.5545 43.9117 45.1446 44.1644 44.8919L51.2819 37.8079C51.5346 37.5551 51.9444 37.5551 52.1975 37.8079C52.321 37.9282 52.3904 38.0934 52.3904 38.2658C52.3904 38.4382 52.321 38.6033 52.1975 38.7236L45.08 45.8076V45.8073C44.9592 45.9297 44.794 45.9982 44.6222 45.9977L44.6222 45.9976Z" fill="white"/>
<defs>
<filter id="filter0_d_122_1116" x="0.927734" y="0.917969" width="91.0146" height="90.9832" filterUnits="userSpaceOnUse" color-interpolation-filters="sRGB">
<feFlood flood-opacity="0" result="BackgroundImageFix"/>
<feColorMatrix in="SourceAlpha" type="matrix" values="0 0 0 0 0 0 0 0 0 0 0 0 0 0 0 0 0 0 127 0" result="hardAlpha"/>
<feOffset dy="4"/>
<feGaussianBlur stdDeviation="11"/>
<feColorMatrix type="matrix" values="0 0 0 0 0 0 0 0 0 0 0 0 0 0 0 0 0 0 0.05 0"/>
<feBlend mode="normal" in2="BackgroundImageFix" result="effect1_dropShadow_122_1116"/>
<feBlend mode="normal" in="SourceGraphic" in2="effect1_dropShadow_122_1116" result="shape"/>
</filter>
</defs>
</svg>
