<svg width="91" height="91" viewBox="0 0 91 91" fill="none" xmlns="http://www.w3.org/2000/svg">
<g filter="url(#filter0_d_122_1114)">
<rect x="22" y="18" width="47" height="47" rx="5" fill="#FF5C00"/>
</g>
<path d="M51.4294 47.6226C50.6677 46.8469 49.3383 46.8481 48.5773 47.6226L47.1806 49.0432C46.8195 49.4101 46.2015 49.4096 45.8413 49.0432L41.1735 44.2963C40.9682 44.0869 40.6321 44.0839 40.4234 44.2902C40.2145 44.4953 40.2117 44.8316 40.4173 45.0402L45.0848 49.7871C45.8467 50.5623 47.1756 50.5623 47.9371 49.7871L49.3338 48.3665C49.6933 48.0017 50.3136 48.0008 50.6732 48.3665L54.1662 51.9185C54.3469 52.1025 54.4463 52.3491 54.4463 52.6122C54.4463 52.8753 54.3469 53.1221 54.1662 53.3059C52.6802 54.8167 50.7058 55.6488 48.6064 55.6488C46.507 55.6488 44.5327 54.8167 43.047 53.3059L35.363 45.4909C32.2906 42.3667 32.2906 37.2825 35.363 34.1581C35.723 33.7924 36.3421 33.7924 36.7024 34.1581L40.1951 37.7101C40.571 38.0923 40.571 38.7152 40.1951 39.0975L38.7977 40.5181C38.0185 41.3104 38.0185 42.6005 38.7975 43.3937C38.9015 43.4993 39.0386 43.5521 39.176 43.5521C39.3103 43.5521 39.4446 43.5015 39.5478 43.3999C39.7569 43.1948 39.76 42.8589 39.5544 42.6498C39.1783 42.2675 39.1783 41.6446 39.5542 41.2623L40.9519 39.8417C41.7309 39.0485 41.7309 37.7584 40.9516 36.9661L37.4589 33.4142C36.6972 32.639 35.3683 32.639 34.6068 33.4142C31.1311 36.9491 31.1311 42.7006 34.6068 46.2349L42.2907 54.0499C43.9773 55.7649 46.2203 56.7099 48.6068 56.7099C50.9926 56.7099 53.236 55.7649 54.9229 54.0499C55.3002 53.6659 55.508 53.155 55.508 52.6122C55.508 52.0691 55.3002 51.5585 54.9229 51.1745L51.43 47.6226L51.4294 47.6226Z" fill="white"/>
<path d="M50.6104 27.0002C46.5354 27.0002 43.2205 30.3675 43.2205 34.5065C43.2205 36.4633 43.9518 38.2992 45.2851 39.7051L44.9374 43.5555C44.9187 43.7622 45.0224 43.9607 45.2024 44.0637C45.2844 44.1104 45.3753 44.1336 45.4658 44.1336C45.5743 44.1336 45.6825 44.1004 45.7749 44.0341L48.2208 42.2815C48.459 42.111 48.514 41.7794 48.343 41.5416C48.1725 41.3033 47.8409 41.2479 47.6031 41.4194L46.0979 42.4975L46.3637 39.5563C46.3777 39.3983 46.3206 39.2423 46.2078 39.1309C44.9654 37.9045 44.2814 36.2623 44.2814 34.5063C44.2814 30.9527 47.1202 28.0611 50.6102 28.0611C54.0997 28.0611 56.939 30.9525 56.939 34.5063C56.939 38.0604 54.1 40.9522 50.6102 40.9522C50.317 40.9522 50.0797 41.1895 50.0797 41.4827C50.0797 41.7759 50.317 42.0132 50.6102 42.0132C54.6851 42.0132 58.0001 38.6455 58.0001 34.5063C58.0001 30.3671 54.6852 27 50.6102 27L50.6104 27.0002Z" fill="white"/>
<defs>
<filter id="filter0_d_122_1114" x="0" y="0" width="91" height="91" filterUnits="userSpaceOnUse" color-interpolation-filters="sRGB">
<feFlood flood-opacity="0" result="BackgroundImageFix"/>
<feColorMatrix in="SourceAlpha" type="matrix" values="0 0 0 0 0 0 0 0 0 0 0 0 0 0 0 0 0 0 127 0" result="hardAlpha"/>
<feOffset dy="4"/>
<feGaussianBlur stdDeviation="11"/>
<feColorMatrix type="matrix" values="0 0 0 0 0 0 0 0 0 0 0 0 0 0 0 0 0 0 0.05 0"/>
<feBlend mode="normal" in2="BackgroundImageFix" result="effect1_dropShadow_122_1114"/>
<feBlend mode="normal" in="SourceGraphic" in2="effect1_dropShadow_122_1114" result="shape"/>
</filter>
</defs>
</svg>
